<svg id="Layer_1" data-name="Layer 1" xmlns="http://www.w3.org/2000/svg" viewBox="0 0 512 512"><defs><style>.cls-1{fill:#fff;stroke-width:10px;}.cls-1,.cls-3{stroke:#1d1d1b;stroke-miterlimit:10;}.cls-2{fill:#1d1d1b;}.cls-3{fill:none;}</style></defs><path class="cls-1" d="M45.36,435,76.87,256.27a15,15,0,0,1,14.75-12.39h365.3v-31a15,15,0,0,0-15-15H249.59V171.55a15,15,0,0,0-15-15H57.26a15,15,0,0,0-15,15v266a15,15,0,0,0,15,15h2.85A15,15,0,0,1,45.36,435Z"/><path class="cls-1" d="M441.92,452.55h2.43a15,15,0,0,0,14.76-12.38l31.5-178.7a15,15,0,0,0-14.75-17.59H456.92"/><path class="cls-1" d="M456.92,243.88H91.62a15,15,0,0,0-14.75,12.39L45.36,435a15,15,0,0,0,14.75,17.59H441.92"/><path class="cls-2" d="M480.7,232c-4.27,4.27-34.05-34.55-90.81-79-72.84-57-168.22-51.53-209.82,12.45-17,26.17-45,61.59-72.15,47.4C84.51,200.6,74.65,140.17,113.47,84.5c46.89-67.25,187-116,309.12,49.36C452,173.67,485.28,227.39,480.7,232Z"/><path class="cls-3" d="M480.7,232c-4.27,4.27-34.05-34.55-90.81-79-72.84-57-168.22-51.53-209.82,12.45-17,26.17-45,61.59-72.15,47.4C84.51,200.6,74.65,140.17,113.47,84.5c46.89-67.25,187-116,309.12,49.36C452,173.67,485.28,227.39,480.7,232Z"/></svg>