<svg id="Layer_1" data-name="Layer 1" xmlns="http://www.w3.org/2000/svg" viewBox="0 0 512 512"><defs><style>.cls-1{fill:#1d1d1b;}.cls-2,.cls-3{fill:none;stroke:#1d1d1b;stroke-miterlimit:10;}.cls-3{stroke-width:20px;}</style></defs><path class="cls-1" d="M499.94,346.49c-4.95,4.93-39.42-40-105.15-91.46-84.35-66-194.8-59.66-243,14.42-19.71,30.31-52.11,71.32-83.55,54.89-27.1-14.17-38.52-84.14,6.43-148.61,54.3-77.88,216.49-134.32,358,57.16C466.71,279,505.25,341.2,499.94,346.49Z"/><path class="cls-2" d="M499.94,346.49c-4.95,4.93-39.42-40-105.15-91.46-84.35-66-194.8-59.66-243,14.42-19.71,30.31-52.11,71.32-83.55,54.89-27.1-14.17-38.52-84.14,6.43-148.61,54.3-77.88,216.49-134.32,358,57.16C466.71,279,505.25,341.2,499.94,346.49Z"/><line class="cls-3" x1="340.07" y1="345" x2="411.59" y2="345"/><line class="cls-3" x1="267.94" y1="345" x2="339.47" y2="345"/></svg>