<svg id="Layer_1" data-name="Layer 1" xmlns="http://www.w3.org/2000/svg" viewBox="0 0 512 512"><defs><style>.cls-1{fill:#fff;}.cls-1,.cls-2,.cls-4{stroke:#1d1d1b;stroke-miterlimit:10;}.cls-1,.cls-2{stroke-width:10px;}.cls-2,.cls-4{fill:none;}.cls-3{fill:#1d1d1b;}.cls-4{stroke-width:3px;}</style></defs><g id="RecentFile"><path class="cls-1" d="M326.19,41H96A15,15,0,0,0,81,56v400.1A15,15,0,0,0,96,471h320.1A15,15,0,0,0,431,456.05V145.81Z"/><path class="cls-2" d="M326.25,41v89.17A14.89,14.89,0,0,0,341.19,145H431"/><path class="cls-3" d="M373,334.41c-2.28,2.27-18.15-18.42-48.42-42.1-38.83-30.4-89.68-27.48-111.86,6.63-9.08,14-24,32.84-38.47,25.27-12.48-6.52-17.73-38.74,3-68.42,25-35.85,99.67-61.84,164.81,26.32C357.73,303.33,375.47,332,373,334.41Z"/><path class="cls-3" d="M372.59,335.1c-1.63,0-4.77-3-12-10.08A421,421,0,0,0,324.3,292.7c-21.08-16.5-46.46-23.75-69.59-19.9-17.63,2.94-32.38,12.32-41.54,26.42-14.78,22.72-27.94,31.28-39.12,25.44-4.47-2.34-8.07-7.94-9.89-15.36-3.12-12.75-1.43-33.57,12.67-53.79,14-20,40-33.19,66.45-33.56,24.85-.38,62.16,9.77,99.17,59.86,12.79,17.32,34.07,49.82,30.93,53h0A1.11,1.11,0,0,1,372.59,335.1ZM267.11,270.79c19.77,0,40.26,7.39,57.81,21.12a423.28,423.28,0,0,1,36.35,32.39c5.26,5.15,10.69,10.46,11.4,9.76h0c1.8-1.79-12.93-27.16-31-51.65-36.76-49.75-73.76-59.84-98.36-59.46-26.09.36-51.86,13.36-65.64,33.13-13.91,19.95-15.58,40.45-12.52,53,1.75,7.15,5.17,12.51,9.38,14.71,10.65,5.57,23.37-2.88,37.82-25.1,9.32-14.33,24.31-23.87,42.21-26.85A76.33,76.33,0,0,1,267.11,270.79Z"/><path class="cls-3" d="M372.67,337.65c-2.11,0-4.27-1.83-5.43-2.81-2.1-1.79-4.91-4.53-8.45-8a420,420,0,0,0-36.06-32.13c-20.52-16.07-45.16-23.13-67.6-19.39-16.91,2.81-31.06,11.79-39.83,25.29-15.61,24-29.89,32.86-42.43,26.31-5.19-2.72-9.16-8.76-11.18-17-3.26-13.28-1.53-34.93,13.05-55.85,14.42-20.67,41.3-34.27,68.51-34.64,25.42-.35,63.57,9.89,101.25,60.89,7.84,10.61,16.23,23.11,22.45,33.43,3.23,5.39,5.67,9.82,7.24,13.18,2.14,4.61,3,7.66,1,9.66A3.45,3.45,0,0,1,372.67,337.65ZM267.12,273.84c19.09,0,38.91,7.16,55.92,20.47a417.46,417.46,0,0,1,36.09,32.17c3.55,3.47,6.34,6.2,8.44,8,1.11.94,3.17,2.69,5.1,2.69a2.94,2.94,0,0,0,2.16-.93c1.79-1.79.95-4.69-1.1-9.1-1.56-3.34-4-7.76-7.21-13.13-6.21-10.31-14.59-22.79-22.42-33.39-36.92-50-74.28-60.7-99.55-60.7h-1.3c-27,.37-53.77,13.88-68.1,34.42-14.49,20.79-16.2,42.28-13,55.46,2,8.11,5.87,14,10.93,16.68,12.27,6.42,26.33-2.37,41.78-26.14,8.85-13.61,23.12-22.67,40.16-25.51A73.65,73.65,0,0,1,267.12,273.84ZM369,328.93l-1-1c-1.61-1.52-3.45-3.32-5.23-5.06l-.05-.05a424.41,424.41,0,0,0-36.52-32.54c-17.76-13.9-38.74-21.56-59.07-21.56a78.7,78.7,0,0,0-12.9,1.06c-18.48,3.08-34,12.93-43.6,27.76-11.16,17.17-21.05,25.81-29.48,25.81a12.14,12.14,0,0,1-5.67-1.41c-3.69-1.93-6.73-6.81-8.34-13.39-3-12.09-1.31-31.93,12.21-51.32,10.19-14.61,33.06-31.83,64-32.25h1.06c24.12,0,59.94,10.34,95.62,58.63,13.36,18.08,24.07,35.5,28.37,44Zm-101.9-60.69c20.44,0,41.53,7.7,59.38,21.67A423.83,423.83,0,0,1,363,322.46l.07.07c1.4,1.37,2.82,2.76,4.15,4-4.67-8.9-15-25.47-27.65-42.64-35.56-48.12-71.22-58.43-95.22-58.43h-1c-30.74.42-53.47,17.52-63.59,32-13.42,19.25-15.07,38.92-12.13,50.91,1.57,6.44,4.52,11.2,8.08,13.06a11.61,11.61,0,0,0,5.45,1.36c8.25,0,18-8.57,29.05-25.59,9.72-14.94,25.32-24.87,43.93-28A79.8,79.8,0,0,1,267.11,268.24Z"/><path class="cls-4" d="M153.15,386.31c5.93-11.58,9.7-35,5.4-51.73-5.51-21.47-10.85-50.44,7.57-82.68,19.27-33.72,58.92-45.84,98.29-39.53C333,223.37,366,293.51,392.05,342"/><path class="cls-4" d="M139.59,371.89c8.36-17.13,8.74-25.07,4-47.82-4.49-21.71-6.38-49.44,12-81.68,19.27-33.72,62.38-50.28,101.84-44.49,74,10.85,118,72.84,141.07,127.44"/><path class="cls-4" d="M127.71,355.3c6-9.37,3.51-21.17,1.26-38.12-2.92-22-4.53-50.21,16-81.12,77.22-116,218.17-32.66,259.27,67.66"/><path class="cls-4" d="M166.12,397.14c4.33-7.53,7.78-26.28,8.75-49.49.73-17.19,21.84-4.49,41.85-35.76C265.22,236.09,353,330.35,379,363.31"/><path class="cls-4" d="M178.26,405.29c5.6-16.44,9.27-25.27,14.07-40.85,4.09-13.29,15.9-10.33,29.57-36.67,38.34-73.92,111.17-2.33,148.28,46.83"/><path class="cls-4" d="M196.45,414.63c3.4-15.65,7.54-28.4,10.56-39.9,2.86-10.92,10.07-7.48,27.72-40.15,31.37-58.08,93.54,5,125.49,50.5"/></g></svg>