<svg id="Layer_1" data-name="Layer 1" xmlns="http://www.w3.org/2000/svg" viewBox="0 0 512 512"><defs><style>.cls-1{fill:#1d1d1b;}.cls-2,.cls-3{fill:none;stroke:#1d1d1b;stroke-miterlimit:10;}.cls-3{stroke-width:20px;}</style></defs><path class="cls-1" d="M381.47,420.65c-2.6,2.6-20.77-21.09-55.41-48.2-44.45-34.78-102.66-31.44-128,7.6-10.38,16-27.46,37.59-44,28.93-14.28-7.47-20.29-44.35,3.39-78.32,28.62-41,114.09-70.79,188.64,30.12C364,385.08,384.27,417.86,381.47,420.65Z"/><path class="cls-2" d="M381.47,420.65c-2.6,2.6-20.77-21.09-55.41-48.2-44.45-34.78-102.66-31.44-128,7.6-10.38,16-27.46,37.59-44,28.93-14.28-7.47-20.29-44.35,3.39-78.32,28.62-41,114.09-70.79,188.64,30.12C364,385.08,384.27,417.86,381.47,420.65Z"/><path class="cls-3" d="M358,88.33H98a26,26,0,0,0-26,26V435a26,26,0,0,0,26,26H418.67a26,26,0,0,0,26-26V175Z"/><path class="cls-3" d="M184.67,88.33H328.3a0,0,0,0,1,0,0v65.42a25.06,25.06,0,0,1-25.06,25.06H210.58a25.91,25.91,0,0,1-25.91-25.91V88.33A0,0,0,0,1,184.67,88.33Z"/><path class="cls-3" d="M148.83,256H374.74a25.08,25.08,0,0,1,25.08,25.08V461a0,0,0,0,1,0,0H123.33a0,0,0,0,1,0,0V281.5A25.5,25.5,0,0,1,148.83,256Z"/></svg>