<svg id="Layer_1" data-name="Layer 1" xmlns="http://www.w3.org/2000/svg" viewBox="0 0 512 512"><defs><style>.cls-1{fill:#fff;}.cls-1,.cls-2{stroke:#1d1d1b;}.cls-1,.cls-2,.cls-3{stroke-miterlimit:10;stroke-width:10px;}.cls-2{fill:none;}.cls-3{fill:#1d1d1b;stroke:#fff;}</style></defs><g id="Web"><circle class="cls-1" cx="256" cy="256" r="196"/><path class="cls-2" d="M60.17,256c0,9.11,87.72,16.5,195.92,16.5S452,265.11,452,256"/><path class="cls-2" d="M71,190.57c0,9.11,82.9,16.5,185.17,16.5s185.16-7.39,185.16-16.5"/><path class="cls-2" d="M114.67,118.87c0,9.11,63.42,16.5,141.66,16.5S398,128,398,118.87"/><path class="cls-2" d="M115.4,392c0,9.11,63,16.5,140.63,16.5s140.64-7.39,140.64-16.5"/><path class="cls-2" d="M71,320.25c0,9.11,82.9,16.5,185.17,16.5s185.16-7.39,185.16-16.5"/><path class="cls-2" d="M256,60c-30.13,0-54.56,87.75-54.56,196S225.87,452,256,452"/><path class="cls-2" d="M256,60c-77.45,0-140.23,87.75-140.23,196S178.55,452,256,452"/><path class="cls-2" d="M257.14,60c30.36,0,55,87.75,55,196s-24.61,196-55,196"/><path class="cls-2" d="M257.14,60c77.44,0,140.23,87.75,140.23,196S334.58,452,257.14,452"/><path class="cls-3" d="M480.57,382.78Q378.41,389.88,369,491.85L257.27,264.12h0Z"/></g></svg>