<svg id="Layer_1" data-name="Layer 1" xmlns="http://www.w3.org/2000/svg" viewBox="0 0 512 512"><defs><style>.cls-1{fill:#1d1d1b;}.cls-2,.cls-3{fill:none;stroke:#1d1d1b;stroke-miterlimit:10;}.cls-3{stroke-width:20px;}</style></defs><path class="cls-1" d="M488.17,353.66c-4.94,4.94-39.42-40-105.15-91.45-84.35-66-194.8-59.67-243,14.41-19.71,30.32-52.11,71.32-83.55,54.89C29.4,317.34,18,247.37,62.93,182.9c54.3-77.88,216.49-134.32,358,57.16C454.94,286.16,493.48,348.37,488.17,353.66Z"/><path class="cls-2" d="M488.17,353.66c-4.94,4.94-39.42-40-105.15-91.45-84.35-66-194.8-59.67-243,14.41-19.71,30.32-52.11,71.32-83.55,54.89C29.4,317.34,18,247.37,62.93,182.9c54.3-77.88,216.49-134.32,358,57.16C454.94,286.16,493.48,348.37,488.17,353.66Z"/><line class="cls-3" x1="328.3" y1="339.41" x2="399.82" y2="339.41"/><line class="cls-3" x1="256.18" y1="339.41" x2="327.7" y2="339.41"/><line class="cls-3" x1="327.7" y1="339.71" x2="327.7" y2="411.23"/><line class="cls-3" x1="327.7" y1="267.59" x2="327.7" y2="339.11"/></svg>