<svg id="Layer_1" data-name="Layer 1" xmlns="http://www.w3.org/2000/svg" viewBox="0 0 512 512"><defs><style>.cls-1{fill:#1d1d1b;}.cls-2,.cls-3{fill:none;stroke:#1d1d1b;stroke-miterlimit:10;}.cls-3{stroke-width:10px;}</style></defs><path class="cls-1" d="M466,248c-4.27,4.27-34-34.55-90.81-79-72.84-57-168.23-51.53-209.82,12.45-17,26.17-45,61.59-72.15,47.4-23.41-12.24-33.27-72.67,5.55-128.34,46.89-67.25,187-116,309.12,49.36C437.26,189.72,470.54,243.44,466,248Z"/><path class="cls-2" d="M466,248c-4.27,4.27-34-34.55-90.81-79-72.84-57-168.23-51.53-209.82,12.45-17,26.17-45,61.59-72.15,47.4-23.41-12.24-33.27-72.67,5.55-128.34,46.89-67.25,187-116,309.12,49.36C437.26,189.72,470.54,243.44,466,248Z"/><path class="cls-1" d="M466,275c-4.27-4.27-34,34.55-90.81,79-72.84,57-168.23,51.53-209.82-12.45-17-26.17-45-61.59-72.15-47.4-23.41,12.24-33.27,72.67,5.55,128.34,46.89,67.25,187,116,309.12-49.36C437.26,333.28,470.54,279.56,466,275Z"/><path class="cls-2" d="M466,275c-4.27-4.27-34,34.55-90.81,79-72.84,57-168.23,51.53-209.82-12.45-17-26.17-45-61.59-72.15-47.4-23.41,12.24-33.27,72.67,5.55,128.34,46.89,67.25,187,116,309.12-49.36C437.26,333.28,470.54,279.56,466,275Z"/><line class="cls-3" x1="18.67" y1="261.5" x2="493.33" y2="261.5"/></svg>