<svg id="Layer_1" data-name="Layer 1" xmlns="http://www.w3.org/2000/svg" viewBox="0 0 512 512"><defs><style>.cls-1{fill:#fff;}.cls-1,.cls-2{stroke:#1d1d1b;stroke-miterlimit:10;stroke-width:10px;}.cls-2{fill:none;}.cls-3{font-size:256px;fill:#1d1d1b;font-family:SWGothe;}</style></defs><g id="Manual"><path class="cls-1" d="M405.43,105V443.07A14.92,14.92,0,0,1,390.51,458H135"/><path class="cls-1" d="M135,48.18H390.46a15,15,0,0,1,15,15V386.27a14.92,14.92,0,0,1-14.92,14.92H135a0,0,0,0,1,0,0v-353A0,0,0,0,1,135,48.18Z"/><path class="cls-2" d="M135,458a28.41,28.41,0,0,1,0-56.81"/><path class="cls-2" d="M106.57,76.59A28.41,28.41,0,0,1,135,48.18"/><line class="cls-2" x1="106.57" y1="76.59" x2="106.65" y2="431.57"/><text class="cls-3" transform="translate(225.56 318.11)">i</text></g></svg>