<svg id="Layer_1" data-name="Layer 1" xmlns="http://www.w3.org/2000/svg" viewBox="0 0 512 512"><defs><style>.cls-1{fill:#fff;stroke:#1d1d1b;stroke-miterlimit:10;stroke-width:10px;}</style></defs><path class="cls-1" d="M40.57,405.41,72.08,226.72a15,15,0,0,1,14.76-12.39h365.3v-31a15,15,0,0,0-15-15H244.81V142a15,15,0,0,0-15-15H52.47a15,15,0,0,0-15,15V408a15,15,0,0,0,15,15h2.86A15,15,0,0,1,40.57,405.41Z"/><path class="cls-1" d="M437.14,423h2.42a15,15,0,0,0,14.76-12.38l31.51-178.7a15,15,0,0,0-14.76-17.59H452.14"/><path class="cls-1" d="M452.14,214.33H86.84a15,15,0,0,0-14.76,12.39L40.57,405.41A15,15,0,0,0,55.33,423H437.14"/></svg>