**ABCDEFGHIJKLMNOPQRSTUVWXYZabcdefghijklmnopqrstuvwxyz**************************
**PARASOLID !"#$%&'()*+,-./:;<=>?@[\]^_`{|}~0123456789**************************
**PART1;
MC=AMD64;
MC_MODEL=AMD64 Family 25 Model 97 Stepping 2, AuthenticAMD;
MC_ID=unknown;
OS=Windows_NT;
OS_RELEASE=unknown;
FRU=Parasolid Version 34.1, build 254,  2-10-2023;
APPL=SOLIDWORKS 2023-2023138;
SITE=;
USER=unknown;
FORMAT=text;
GUISE=transmit;
KEY=Czêœæ1;
FILE=Czêœæ1.x_t;
DATE=Sat Jun 21 23:14:29 2025;
**PART2;
SCH=SCH_3401254_34101;
USFLD_SIZE=0;
**PART3;
**END_OF_HEADER*****************************************************************
T51 : TRANSMIT FILE created by modeller version 340125423 SCH_3401254_34101_1300
6231 0 12 36 CCCI7 lattice222 0 CCCI4 mesh1006 0 I8 polyline1008 0 CCCCCCCDI5 ow
ner1040 0 CCCI16 boundary_lattice222 0 CCCI13 boundary_mesh1006 0 I17 boundary_p
olyline1008 0 CCCA16 index_map_offset0 0 1 dA9 index_map82 0 A17 node_id_index_m
ap82 0 A20 schema_embedding_map82 0 A5 child12 0 A14 lowest_node_id0 0 1 dA16 me
sh_offset_data206 0 Z1 63 2 3 0 0 0 0 0 0 0 1e3 1e-8 0 4 0 1 0 3 1 5 0 6 7 8 0 0
 9 10 11 0 0 0 0 0 0 0 81 255 2 2 62 12 1 13 0 0 0 0 14 70 11 CI9 list_type0 0 1
 uI10 notransmit0 0 1 lCCCDCCDI12 finger_index0 0 1 dI12 finger_block1012 0 CZ3
 0 4 T1 0 0 9 20 1 15 15 13 255 5 3 0 1 0 16 0 0 9 16 67 255 6 31 0 16 0 0 0 +17
 0 0 1 ?30 255 7 33 0 18 19 0 0 +-.002 .005 0 0 0 1 29 255 8 25 0 20 21 0 -.002
 -.001 .01 19 9 CCCCCCI5 frame230 0 CA5 owner12 0 Z9 1 0 1 0 0 5 0 V0 16 255 10
 27 0 ?22 0 23 19 0 0 1 18 255 11 5 0 24 0 25 26 ?1 17 255 24 0 0 0 0 11 22 10 0
 27 -18 25 2 0 28 11 20 29 ?1 29 26 8 0 11 29 21 -.002 -.001 0 29 29 4 0 25 0 26
 -.002 .005 0 29 21 26 0 30 26 8 -.002 .005 .01 18 30 22 0 31 20 0 21 ?1 17 31 0
 0 0 0 30 28 18 0 32 +18 20 20 0 22 25 30 8 ?1 17 22 0 33 32 27 20 24 10 0 34 +1
5 255 33 29 0 32 16 0 17 32 0 33 28 22 30 34 35 0 0 -17 27 0 33 22 28 11 36 23 0
 0 +17 34 0 0 0 0 20 32 35 0 0 +16 35 16 0 ?34 18 0 37 0 0 1 16 18 28 0 ?31 23 3
5 7 0 0 1 134 255 37 24 0 35 17 19 0 +38 39 134 17 7 0 23 0 37 40 +41 42 30 19 3
2 0 10 37 7 0 +-.002 -.001 0 0 0 1 136 255 38 3 4 3 2 5 FFF1 43 44 45 135 255 39
 2 0 45 255 12 43 -.002 .005 .01 -.007 .003 .01 -.006 0 .01 -.002 -.001 .01 127
 255 2 44 4 4 128 255 2 45 0 1 16 23 6 0 ?27 10 18 17 0 0 1 141 255 40 6 40 40 1
7 136 41 3 4 3 2 5 FFF1 46 47 48 135 42 2 0 45 12 46 -.002 .005 0 -.007 .003 0 -
.006 0 0 -.002 -.001 0 127 2 47 4 4 128 2 48 0 1 17 28 0 33 27 32 25 31 18 0 36
 -17 36 0 0 0 0 25 27 23 0 0 -14 255 16 30 49 ?0 0 33 5 6 +0 0 0 0 5 81 1 49 63
 50 16 51 0 0 0 52 80 7 CCCCCDI12 legal_owners0 16 1 lCZ1 50 53 54 9000 1 1 1 1
 1 1 1 1 0 FFFFTFTFFFFFFFFF1 81 1 51 54 55 16 0 49 0 0 56 82 255 1 52 -805371797
 80 1 55 0 57 8001 0 0 0 0 3 5 0 0 0 FFFFTFTFFFFFFFFF2 83 255 3 56 .792156862745
098 .819607843137255 .933333333333333 79 255 15 57 SDL/TYSA_COLOUR79 14 54 SWEnt
Unchanged74 4 CI16 index_map_offset0 0 1 dCCZ20 15 9 0 0 58 59 60 61 62 13 51 2
 49 0 0 0 0 0 0 0 0 0 0 0 81 2 58 42 63 1 0 59 0 0 0 64 81 2 59 45 65 1 58 60 0
 0 0 66 81 2 60 46 67 1 59 61 0 0 68 0 81 1 61 48 69 1 60 62 0 0 70 81 2 62 50 7
1 1 61 13 0 0 0 0 81 2 13 53 72 1 62 2 0 0 0 73 80 2 72 74 75 9000 0 0 0 0 3 5 0
 0 0 FFTFFFFFFFFFFFFF9 1 82 1 73 1 79 24 75 BODY_IN_LIGHTWEIGHT_PERM80 2 71 76 7
7 9000 0 0 0 0 3 5 0 0 0 FFTFFFFFFFFFFFFF9 1 79 16 77 BODY_RECIPE_200180 1 69 78
 79 9000 1 1 1 1 1 1 1 1 0 FFTFFFFFFFFFFFFF1 82 1 70 53207 79 10 79 BODY_MATCH80
 2 67 80 81 9000 0 0 0 0 3 5 0 0 0 FFTFTTTFFTFFFFFF3 3 84 255 26 68 Powierzchnia
-Wyci¹gniêcie179 21 81 SWIMPLICITBODYNAME_ID80 2 65 82 83 9000 0 0 0 0 3 5 0 0 0
 FFTFFFFFFFFFFFFF9 1 82 1 66 32 79 30 83 LAST_BODY_MODIFYING_FEATURE_ID80 2 63 8
4 85 9000 0 0 0 0 3 5 0 0 0 FFTFFFFFFFFFFFFF9 1 82 1 64 106 79 19 85 ENT_TIME_ST
AMP_200180 2 12 86 87 9000 0 0 0 0 3 5 0 0 0 FFTFFFFFFFFFFFFF9 1 82 1 14 101 79
 12 87 ATOM_ID_20011 0 
