**ABCDEFGHIJKLMNOPQRSTUVWXYZabcdefghijklmnopqrstuvwxyz**************************
**PARASOLID !"#$%&'()*+,-./:;<=>?@[\]^_`{|}~0123456789**************************
**PART1;
MC=AMD64;
MC_MODEL=AMD64 Family 25 Model 97 Stepping 2, AuthenticAMD;
MC_ID=unknown;
OS=Windows_NT;
OS_RELEASE=unknown;
FRU=Parasolid Version 36.1, build 228,  1-18-2025;
APPL=SOLIDWORKS 2025-2025076;
SITE=;
USER=unknown;
FORMAT=text;
GUISE=transmit;
KEY=test6_solid;
FILE=test6_solid.x_t;
DATE=Fri Sep 12 21:17:23 2025;
**PART2;
SCH=SCH_3601228_36001;
USFLD_SIZE=0;
**PART3;
**END_OF_HEADER*****************************************************************
T51 : TRANSMIT FILE created by modeller version 360122823 SCH_3601228_36001_1300
6231 0 12 36 CCCI7 lattice222 0 CCCI4 mesh1006 0 I8 polyline1008 0 CCCCCCCDI5 ow
ner1040 0 CCCI16 boundary_lattice222 0 CCCI13 boundary_mesh1006 0 I17 boundary_p
olyline1008 0 CCCA16 index_map_offset0 0 1 dA9 index_map82 0 A17 node_id_index_m
ap82 0 A20 schema_embedding_map82 0 A5 child12 0 A14 lowest_node_id0 0 1 dA16 me
sh_offset_data206 0 Z1 282 2 3 0 0 0 0 0 0 0 1e3 1e-8 0 4 0 1 0 3 1 5 0 6 7 8 0
 0 9 10 11 0 0 0 0 0 0 0 81 255 2 2 278 12 1 13 0 0 0 0 14 70 11 CI9 list_type0
 0 1 uI10 notransmit0 0 1 lCCCDCCDI12 finger_index0 0 1 dI12 finger_block1012 0
 CZ3 0 4 T1 0 0 14 20 1 15 15 13 255 5 3 16 1 0 17 0 0 9 17 124 255 6 205 0 18 1
9 0 20 +21 22 134 255 7 209 0 1 23 0 24 +25 26 29 255 8 189 0 27 28 0 .990004367
1 -.0050087247 0 19 9 CCCCCCI5 frame230 0 CA5 owner12 0 Z9 5 0 1 0 0 5 0 V0 16 2
55 10 21 29 1e-6 30 0 31 0 0 0 1 18 255 11 17 0 32 0 33 34 1000199980004e-18 1 1
7 255 32 0 35 36 37 11 30 10 38 39 -18 33 13 0 40 11 41 42 1000199980004e-18 1 2
9 34 182 0 11 0 42 .0399912709 .0250139611 0 29 42 183 0 33 34 43 .9899956405 .0
049912715 0 29 43 184 0 41 42 44 .9899956405 .1049912715 .3 18 41 9 0 45 33 46 4
3 1000199980004e-18 1 29 44 185 0 46 43 47 .0399912709 .1250139611 .3 18 46 7 0
 37 41 48 44 1000199980004e-18 1 29 47 186 0 48 44 49 .0400087242 -.0249860358 0
 18 48 75 0 50 46 51 47 1000199980004e-18 1 29 49 187 0 51 47 28 .0400087242 .07
50139642 .3 18 51 78 0 52 48 53 49 1000199980004e-18 1 29 28 188 0 53 49 8 .9900
043671 .0949912753 .3 18 53 117 0 54 51 27 28 1000199980004e-18 1 17 54 0 55 52
 56 53 57 58 59 60 +18 27 118 0 56 53 0 8 1000199980004e-18 1 17 56 0 55 54 50 2
7 61 62 0 63 -15 255 55 142 0 50 18 0 17 50 0 55 56 52 48 64 65 66 61 -17 61 0 0
 0 0 48 56 62 0 36 +16 62 151 67 ?61 68 0 69 0 0 1 17 63 0 0 0 0 27 40 70 0 57 +
17 40 0 71 45 57 33 63 70 0 72 -16 70 109 73 ?63 58 68 74 0 0 1 17 57 0 71 40 75
 27 54 58 76 0 -15 71 100 0 57 77 0 17 75 0 71 57 45 53 78 79 0 0 -16 58 105 80
 1e-6 54 79 70 0 0 0 1 133 255 76 125 0 57 81 82 0 +82 .9900043671 .0949912753 .
3 .9900043671 -.0050087247 0 1 0 137 255 81 128 0 1 83 76 84 -19 85 0 ?137 82 12
4 0 1 76 59 86 -19 87 0 ?133 59 171 0 54 82 88 0 +88 .9900043671 -.0050087247 0
 .9900043671 .0949912753 .3 1 0 141 255 86 76 86 86 82 124 19 200 0 77 89 6 90 +
91 92 134 87 0 0 0 0 0 0 +93 94 136 255 93 1 2 2 2 5 FFF1 95 96 97 135 255 94 2
 0 45 255 4 95 0 0 341.421356237 0 127 255 2 96 2 2 128 255 2 97 0 1 14 255 77 9
7 98 1e-8 18 99 71 5 19 -0 0 18 99 5 124 89 195 0 99 100 19 101 +102 103 141 90
 81 104 104 19 126 255 91 FF3 3 4 4 5 5 2 2 FFF2 3 105 106 107 108 109 125 255 9
2 0 341.421356237 0 28.2110712378 0 341.421356237 0 28.2110712378 2 BBBBBBBB????
0 0 0 0 45 48 105 .9900043671 -.0050087247 0 1.0000048207 -.0055240757 0 .999997
975 .0023205072 0 .9899956405 .0049912715 0 .9900043671 -.0050087247 .1 1.000004
8207 -.0055240757 .1 .999997975 .0023205072 .1 .9899956405 .0049912715 .1 .99000
43671 .0949912753 .2 1.0000048207 .0944759243 .2 .999997975 .1023205072 .2 .9899
956405 .1049912715 .2 .9900043671 .0949912753 .3 1.0000048207 .0944759243 .3 .99
9997975 .1023205072 .3 .9899956405 .1049912715 .3 127 2 106 4 4 127 2 107 4 4 12
8 2 108 0 341.421356237 128 2 109 0 28.2110712378 141 104 82 90 90 19 14 99 55 1
10 1e-8 77 17 35 5 89 +0 0 77 17 5 124 100 190 0 17 0 89 111 +112 113 141 101 11
4 115 115 89 126 102 FF3 3 4 4 5 5 2 2 FFF2 3 116 117 118 119 120 125 103 0 341.
421356237 0 109.953796072 0 341.421356237 0 109.953796072 2 BBBBBBBB????0 0 0 0
 45 48 116 .0400087242 -.0249860358 0 60126e-10 -.0172247866 0 -30854e-10 .00883
89504 0 .0399912709 .0250139611 0 .0400087242 -.0249860358 .1 60126e-10 -.017224
7866 .1 -30854e-10 .0088389504 .1 .0399912709 .0250139611 .1 .0400087242 .075013
9642 .2 60126e-10 .0827752134 .2 -30854e-10 .1088389504 .2 .0399912709 .12501396
11 .2 .0400087242 .0750139642 .3 60126e-10 .0827752134 .3 -30854e-10 .1088389504
 .3 .0399912709 .1250139611 .3 127 2 117 4 4 127 2 118 4 4 128 2 119 0 341.42135
6237 128 2 120 0 109.953796072 137 114 80 0 1 121 83 122 +89 123 0 ?141 115 124
 101 101 89 137 124 84 0 1 38 121 125 +89 126 0 ?133 38 85 0 32 127 124 0 +124 .
0399912709 .1250139611 .3 .0399912709 .0250139611 0 0 1 133 121 81 0 64 124 114
 0 +114 .0400087242 -.0249860358 0 .0400087242 .0750139642 .3 0 1 141 125 38 125
 125 124 134 126 0 0 0 0 0 0 +128 129 136 128 1 2 2 2 5 FFF1 130 131 132 135 129
 2 0 45 4 130 341.421356237 109.953796072 0 109.953796072 127 2 131 2 2 128 2 13
2 0 1 17 64 0 35 37 36 51 50 65 121 0 +15 35 58 0 36 99 0 17 37 0 35 32 64 46 13
3 134 0 135 +17 36 0 35 64 32 48 39 136 0 0 +16 65 59 137 1e-6 64 138 136 0 0 0
 1 81 1 137 176 139 65 140 0 141 80 142 16 138 10 143 ?144 145 65 146 0 0 1 16 1
36 63 147 ?36 65 134 148 0 0 1 81 1 147 64 149 136 150 0 140 151 152 16 134 71 1
51 ?37 136 79 153 0 0 1 133 148 196 0 136 154 155 0 +155 .0399912709 .0250139611
 0 .0400087242 -.0249860358 0 109.953796072 0 134 154 194 0 1 146 148 156 +157 1
58 134 155 197 0 1 148 153 159 -160 161 133 153 198 0 134 155 162 0 +162 .040008
7242 .0750139642 .3 .0399912709 .1250139611 .3 0 109.953796072 141 159 148 159 1
59 155 136 160 3 4 3 2 5 FFF1 163 164 165 135 161 2 0 45 12 163 .0400087242 -.02
49860358 0 60126e-10 -.0172247866 0 -30854e-10 .0088389504 0 .0399912709 .025013
9611 0 127 2 164 4 4 128 2 165 0 109.953796072 134 162 199 0 1 153 74 166 +167 1
68 133 74 201 0 70 162 169 0 +169 .9899956405 .0049912715 0 .9900043671 -.005008
7247 0 28.2110712378 0 141 166 153 166 166 162 136 167 3 4 3 2 5 FFF1 170 171 17
2 135 168 2 0 45 12 170 .0400087242 .0750139642 .3 60126e-10 .0827752134 .3 -308
54e-10 .1088389504 .3 .0399912709 .1250139611 .3 127 2 171 4 4 128 2 172 0 109.9
53796072 134 169 202 0 1 74 173 174 -175 176 133 173 203 0 79 169 177 0 +177 .99
00043671 .0949912753 .3 .9899956405 .1049912715 .3 0 28.2110712378 141 174 74 17
4 174 169 136 175 3 4 3 2 5 FFF1 178 179 180 135 176 2 0 45 12 178 .9900043671 -
.0050087247 0 1.0000048207 -.0055240757 0 .999997975 .0023205072 0 .9899956405 .
0049912715 0 127 2 179 4 4 128 2 180 0 28.2110712378 16 79 101 181 ?78 134 58 17
3 0 0 1 134 177 204 0 1 173 69 182 +183 184 133 69 206 0 62 177 185 0 +185 .9900
043671 -.0050087247 0 .0400087242 -.0249860358 0 1160.3858314 0 141 182 173 182
 182 177 136 183 3 4 3 2 5 FFF1 186 187 188 135 184 2 0 45 12 186 .9900043671 .0
949912753 .3 1.0000048207 .0944759243 .3 .999997975 .1023205072 .3 .9899956405 .
1049912715 .3 127 2 187 4 4 128 2 188 0 28.2110712378 134 185 207 0 1 69 23 189
 -190 191 133 23 208 0 68 185 7 0 +7 .0400087242 .0750139642 .3 .9900043671 .094
9912753 .3 0 1160.3858314 141 189 69 189 189 185 136 190 3 4 3 2 5 FFF1 192 193
 194 135 191 2 0 45 12 192 .0400087242 -.0249860358 0 .16 -.0482665127 0 .590004
3671 .0156043783 0 .9900043671 -.0050087247 0 127 2 193 4 4 128 2 194 0 1160.385
8314 16 68 143 195 ?60 70 62 23 0 0 1 81 1 195 144 149 68 196 0 197 67 198 17 60
 0 0 0 0 53 52 68 0 75 +17 52 0 55 50 54 51 60 68 0 133 -17 133 0 0 0 0 51 37 13
4 0 64 -80 7 CCCCCDI12 legal_owners0 17 1 lCZ1 149 139 199 9000 0 0 0 0 3 6 0 0
 0 TTTFTFTTFFFFFFFFF10 81 1 196 145 200 68 201 195 202 203 204 81 1 197 140 149
 18 202 205 73 195 206 81 1 67 152 149 62 203 0 195 0 207 98 255 3 198 49 53 50
 81 1 203 153 200 62 141 67 196 0 208 98 2 207 55 54 80 1 200 209 210 8038 0 0 0
 0 0 0 0 0 0 TTTTTTTTTTTTTFTFT10 81 1 141 154 139 62 0 203 201 137 211 98 4 208
 78 79 78 69 80 1 139 212 213 9000 0 0 0 0 3 6 0 0 0 TTTTTTTTTTTTTFFFF1 81 1 201
 146 139 68 0 196 214 141 215 82 255 1 211 370 81 1 214 134 139 145 216 0 217 20
1 218 82 1 215 377 16 145 14 214 1e-6 72 31 138 0 0 0 1 81 1 216 35 149 145 219
 214 143 220 221 81 1 217 112 139 70 0 222 223 214 224 82 1 218 193 81 1 222 111
 200 70 217 73 225 202 226 81 1 223 108 139 58 0 225 227 217 228 82 1 224 196 81
 1 225 107 200 58 223 229 230 222 231 81 1 227 104 139 79 0 230 29 223 232 82 1
 228 200 81 1 230 103 200 79 227 181 233 225 234 81 1 29 92 139 10 235 0 236 227
 237 82 1 232 203 81 1 235 41 149 10 238 29 220 239 240 81 1 236 74 139 134 0 24
1 242 29 243 82 1 237 283 81 1 241 73 200 134 236 151 150 233 244 81 1 242 66 13
9 136 0 150 245 236 246 82 1 243 280 81 1 150 65 200 136 242 147 247 241 248 81
 1 245 62 139 65 0 247 249 242 250 82 1 246 287 81 1 247 61 200 65 245 140 251 1
50 252 81 1 249 39 139 10 0 238 253 245 254 82 1 250 290 81 1 238 40 200 10 249
 235 255 256 257 81 1 253 36 139 31 0 255 258 249 259 82 1 254 109 16 31 18 220
 ?260 10 145 261 0 0 1 81 1 255 37 200 31 253 220 219 238 262 81 1 258 33 139 14
5 0 219 263 253 264 82 1 259 106 81 1 219 34 200 145 258 216 265 255 266 81 1 26
3 30 139 138 0 265 0 258 267 82 1 264 102 81 1 265 31 200 138 263 143 0 219 268
 82 1 267 99 81 1 143 32 149 138 265 0 0 216 269 98 4 268 78 79 78 69 98 3 269 5
0 50 51 98 4 266 78 79 78 69 81 1 220 38 149 31 255 0 216 235 270 98 4 262 78 79
 78 69 98 1 270 52 17 260 0 271 30 72 11 272 31 0 0 +133 261 191 0 31 273 274 0
 +274 .9899956405 .0049912715 0 .0399912709 .0250139611 0 968.53467475 0 137 273
 166 0 1 66 261 275 -6 276 0 ?134 274 192 0 1 261 146 277 -278 279 133 146 193 0
 138 274 154 0 +154 .0399912709 .1250139611 .3 .9899956405 .1049912715 .3 0 968.
53467475 141 277 261 277 277 274 136 278 3 4 3 2 5 FFF1 280 281 282 135 279 2 0
 45 12 280 .0399912709 .0250139611 0 .2 .0897266642 0 .8899956405 .0316926806 0
 .9899956405 .0049912715 0 127 2 281 4 4 128 2 282 0 968.53467475 133 66 167 0 5
0 88 273 0 +273 .0400087242 .0750139642 .3 .0400087242 -.0249860358 0 1 0 141 27
5 66 275 275 273 134 276 0 0 0 0 0 0 +283 284 136 283 1 2 2 2 5 FFF1 285 286 287
 135 284 2 0 45 4 285 0 0 573.567711945 0 127 2 286 2 2 128 2 287 0 1 137 88 170
 0 1 59 66 288 -6 289 0 ?141 288 59 288 288 88 134 289 0 0 0 0 0 0 +290 291 136
 290 1 2 2 2 5 FFF1 292 293 294 135 291 2 0 45 4 292 573.567711945 1160.3858314
 0 1160.3858314 127 2 293 2 2 128 2 294 0 1 15 271 8 0 260 17 0 17 30 0 271 144
 260 46 32 10 295 0 +17 72 0 271 260 144 33 45 145 296 272 +17 272 0 0 0 0 33 26
0 31 0 0 -17 144 0 271 72 30 41 135 138 0 0 +17 45 0 71 75 40 41 72 145 83 78 -1
33 296 15 0 72 0 297 0 +297 .9899956405 .1049912715 .3 .9899956405 .0049912715 0
 0 1 137 297 16 0 1 296 295 298 +100 299 0 ?133 295 24 0 30 297 127 0 +127 .0399
912709 .0250139611 0 .0399912709 .1250139611 .3 0 1 141 298 296 298 298 297 134
 299 0 0 0 0 0 0 +300 301 136 300 1 2 2 2 5 FFF1 302 303 304 135 301 2 0 45 4 30
2 341.421356237 968.53467475 0 968.53467475 127 2 303 2 2 128 2 304 0 1 137 127
 25 0 1 295 38 305 +100 306 0 ?141 305 295 305 305 127 134 306 0 0 0 0 0 0 +307
 308 136 307 1 2 2 2 5 FFF1 309 310 311 135 308 2 0 45 4 309 0 0 341.421356237 0
 127 2 310 2 2 128 2 311 0 1 133 83 129 0 45 114 81 0 +81 .9899956405 .004991271
5 0 .9899956405 .1049912715 .3 1 0 17 78 0 0 0 0 41 75 79 0 144 +17 135 0 0 0 0
 46 144 138 0 30 -14 17 2 312 1e-8 99 0 271 5 100 +0 0 99 0 5 81 1 312 281 313 1
7 314 0 110 315 316 80 1 313 317 318 9000 1 1 1 1 1 1 1 1 0 FFFFTFTFFFFFFFFFF1 8
1 1 314 257 319 17 320 312 0 321 322 81 1 110 280 313 99 321 0 98 312 323 81 1 3
15 282 313 18 324 0 312 0 325 82 1 316 1816658034 14 18 139 315 1e-8 0 77 55 5 6
 -0 0 0 77 5 81 1 324 260 319 18 205 315 326 0 327 82 1 325 1819017330 80 1 319
 0 328 8001 0 0 0 0 3 5 0 0 0 FFFFTFTFFFFFFFFFF2 81 2 205 217 329 18 197 324 330
 0 0 0 81 1 326 259 319 77 330 98 321 324 331 83 255 3 327 .792156862745098 .819
607843137255 .933333333333333 81 2 330 216 329 77 332 326 333 205 0 0 81 1 98 27
9 313 77 326 0 0 110 334 81 1 321 258 319 99 333 110 314 326 335 83 3 331 .79215
6862745098 .819607843137255 .933333333333333 81 2 333 215 329 99 336 321 320 330
 0 0 83 3 335 .792156862745098 .819607843137255 .933333333333333 80 2 329 337 33
8 9000 0 0 0 0 3 6 0 0 0 FFFFTFFFFFFFFFFFF9 1 81 1 336 56 149 99 251 333 339 140
 340 81 2 320 214 329 17 239 314 0 333 0 0 81 1 239 43 149 17 256 320 235 341 34
2 81 1 256 42 200 17 0 239 238 343 344 81 1 341 46 149 1 345 339 239 339 346 98
 2 342 53 50 81 1 345 45 347 1 343 341 0 0 348 81 1 339 49 149 1 341 349 341 336
 350 98 2 346 56 55 81 1 349 52 351 1 339 352 0 0 353 98 2 350 56 55 80 1 351 35
4 355 8051 0 0 0 0 3 5 0 0 0 TFTFFFFFFFFFFFFFF1 81 2 352 211 356 1 349 357 0 0 0
 358 82 1 353 0 80 2 356 359 360 9000 0 0 0 0 3 5 0 0 0 FFTFFFFFFFFFFFFFF9 1 81
 2 357 212 361 1 352 362 0 0 363 0 82 1 358 38 80 2 361 364 365 9000 0 0 0 0 3 5
 0 0 0 FFTFTTTFFTFFFFFFF10 10 81 2 362 213 366 1 357 367 0 0 0 368 98 19 363 116
 101 115 116 54 95 115 111 108 105 100 46 83 84 69 80 60 49 62 80 2 366 369 370
 9000 0 0 0 0 3 5 0 0 0 FFTFFFFFFFFFFFFFF9 1 81 2 367 236 371 1 362 13 0 0 0 0 8
2 1 368 103 80 2 371 372 373 9000 0 0 0 0 3 5 0 0 0 FFTFFFFFFFFFFFFFF9 1 81 1 13
 241 374 1 367 2 0 0 375 80 1 374 376 377 9000 1 1 1 1 1 1 1 1 0 FFTFFFFFFFFFFFF
FF1 82 1 375 617468 79 255 10 377 BODY_MATCH79 16 373 BODY_RECIPE_200179 19 370
 ENT_TIME_STAMP_200179 23 365 SWIMPLICITBODYNAME_ID_U79 30 360 LAST_BODY_MODIFYI
NG_FEATURE_ID79 21 355 SDL/TYSA_SCALE_FACTOR80 1 347 149 378 9000 0 0 0 0 3 5 0
 0 0 TFTFTFTFFFFFFFFFF10 81 1 343 44 200 1 0 345 256 16 379 98 11 348 116 101 11
5 116 54 95 115 111 108 105 100 81 1 16 51 200 5 0 0 343 251 380 98 4 379 78 79
 78 69 81 1 251 57 200 99 0 336 16 247 381 98 4 380 78 79 78 69 98 4 381 78 79 7
8 69 79 22 378 ATTRIB_XPARASOLID_NAME98 4 344 78 79 78 69 81 1 140 60 149 65 247
 137 336 147 382 98 3 340 49 52 54 98 3 382 50 53 54 79 17 338 ATOM_FACE_ID_2001
82 1 334 1814626418 81 1 332 98 149 77 233 330 151 181 383 81 1 233 99 200 77 0
 332 241 230 384 81 1 151 72 149 134 241 0 147 332 385 81 1 181 102 149 79 230 0
 332 229 386 98 3 383 49 48 48 81 1 229 106 149 58 225 80 181 73 387 98 3 386 49
 50 48 81 1 80 179 139 58 229 0 137 0 388 81 1 73 110 149 70 222 0 229 197 389 9
8 3 387 50 48 51 98 2 389 51 54 82 1 388 367 98 3 385 49 55 51 98 4 384 78 79 78
 69 79 15 328 SDL/TYSA_COLOUR82 1 323 1822031986 83 3 322 .792156862745098 .8196
07843137255 .933333333333333 79 14 318 SWEntUnchanged98 4 257 78 79 78 69 98 4 2
52 78 79 78 69 98 4 248 78 79 78 69 98 4 244 78 79 78 69 98 2 240 54 52 98 4 234
 78 79 78 69 98 4 231 78 79 78 69 81 1 202 141 200 18 0 197 222 196 390 98 4 226
 78 79 78 69 98 4 390 78 79 78 69 98 3 221 49 49 51 79 13 213 SPAATTRIB_TAG79 14
 210 SDL/TYSA_UNAME98 3 206 49 50 55 98 4 204 78 79 78 69 79 19 199 SPAATTRIB_UN
ICODEID141 156 146 156 156 154 136 157 3 4 3 2 5 FFF1 391 392 393 135 158 2 0 45
 12 391 .0399912709 .1250139611 .3 .2 .1897266642 .3 .8899956405 .1316926806 .3
 .9899956405 .1049912715 .3 127 2 392 4 4 128 2 393 0 968.53467475 98 3 152 50 5
4 53 82 1 142 374 17 39 0 0 0 0 11 36 136 0 260 -141 122 121 122 122 114 134 123
 0 0 0 0 0 0 +394 395 136 394 1 2 2 2 5 FFF1 396 397 398 135 395 2 0 45 4 396 0
 0 341.421356237 0 127 2 397 2 2 128 2 398 0 1 141 111 127 399 399 100 126 112 F
F3 3 4 4 5 5 2 2 FFF2 3 400 401 402 403 404 125 113 0 341.421356237 0 968.534674
75 0 341.421356237 0 968.53467475 2 BBBBBBBB????0 0 0 0 45 48 400 .0399912709 .0
250139611 0 .2 .0897266642 0 .8899956405 .0316926806 0 .9899956405 .0049912715 0
 .0399912709 .0250139611 .1 .2 .0897266642 .1 .8899956405 .0316926806 .1 .989995
6405 .0049912715 .1 .0399912709 .1250139611 .2 .2 .1897266642 .2 .8899956405 .13
16926806 .2 .9899956405 .1049912715 .2 .0399912709 .1250139611 .3 .2 .1897266642
 .3 .8899956405 .1316926806 .3 .9899956405 .1049912715 .3 127 2 401 4 4 127 2 40
2 4 4 128 2 403 0 341.421356237 128 2 404 0 968.53467475 141 399 297 111 111 100
 141 84 83 84 84 81 134 85 0 0 0 0 0 0 +405 406 136 405 1 2 2 2 5 FFF1 407 408 4
09 135 406 2 0 45 4 407 341.421356237 28.2110712378 0 28.2110712378 127 2 408 2
 2 128 2 409 0 1 141 24 23 24 24 7 136 25 3 4 3 2 5 FFF1 410 411 412 135 26 2 0
 45 12 410 .0400087242 .0750139642 .3 .16 .0517334873 .3 .5900043671 .1156043783
 .3 .9900043671 .0949912753 .3 127 2 411 4 4 128 2 412 0 1160.3858314 141 20 88
 413 413 6 126 21 FF3 3 4 4 5 5 2 2 FFF2 3 414 415 416 417 418 125 22 0 573.5677
11945 0 1160.3858314 0 573.567711945 0 1160.3858314 2 BBBBBBBB????0 0 0 0 45 48
 414 .0400087242 -.0249860358 0 .16 -.0482665127 0 .5900043671 .0156043783 0 .99
00043671 -.0050087247 0 .0400087242 -.0249860358 .1 .4766652143 -.041607409 .1 .
2733391528 .0089452746 .1 .9900043671 -.0050087247 .1 .0400087242 .0750139642 .2
 .4766652143 .058392591 .2 .2733391528 .1089452746 .2 .9900043671 .0949912753 .2
 .0400087242 .0750139642 .3 .16 .0517334873 .3 .5900043671 .1156043783 .3 .99000
43671 .0949912753 .3 127 2 415 4 4 127 2 416 4 4 128 2 417 0 573.567711945 128 2
 418 0 1160.3858314 141 413 273 20 20 6 74 4 CI16 index_map_offset0 0 1 dCCZ20 1
5 14 0 0 80 203 67 345 349 352 357 362 205 367 315 13 324 2 0 0 0 0 0 0 80 2 12
 419 420 9000 0 0 0 0 3 5 0 0 0 FFTFFFFFFFFFFFFFF9 1 82 1 14 101 79 12 420 ATOM_
ID_20011 0 
